<svg data-v-423bf9ae="" xmlns="http://www.w3.org/2000/svg" viewBox="0 0 517 90" class="iconLeftSlogan"><!----><!----><!----><g data-v-423bf9ae="" id="c9239062-22f7-4720-ac8d-d05f52ebc75d" fill="white" transform="matrix(5.7526364568010235,0,0,5.7526364568010235,106.31830584577733,-18.178331458825404)"><path d="M0.64 8.65C0.64 11.37 2.91 13.57 5.70 13.57C7 13.57 8.25 13.05 9.16 12.21L8.79 11.80C7.97 12.54 6.87 12.99 5.71 12.99C3.23 12.99 1.23 11.05 1.23 8.64C1.23 6.24 3.23 4.31 5.71 4.31C6.87 4.31 7.98 4.76 8.79 5.52L9.14 5.07C8.23 4.26 7.01 3.75 5.70 3.75C2.91 3.75 0.64 5.94 0.64 8.65ZM10.65 11.42C10.65 12.66 11.62 13.57 13.06 13.57C14.32 13.57 15.36 13.12 15.97 12.11L15.99 13.55L16.56 13.55L16.53 8.71C16.52 7.20 15.58 6.24 13.86 6.24C12.75 6.24 11.91 6.65 11.05 7.28L11.33 7.73C12.10 7.14 12.87 6.78 13.78 6.78C15.23 6.78 15.95 7.52 15.96 8.75L15.96 9.46L13.37 9.46C11.69 9.46 10.65 10.21 10.65 11.42ZM11.21 11.41C11.21 10.47 12.00 9.98 13.43 9.98L15.97 9.98L15.97 11.17C15.53 12.45 14.50 13.03 13.15 13.03C11.96 13.03 11.21 12.38 11.21 11.41ZM19.24 13.55L19.82 13.55L19.82 9.60C19.95 7.92 20.99 6.87 22.67 6.83C24.16 6.83 25.05 7.71 25.05 9.21L25.05 13.55L25.63 13.55L25.63 9.10C25.63 7.32 24.58 6.24 22.81 6.24C21.35 6.27 20.31 6.92 19.82 8.12L19.82 6.26L19.24 6.26ZM27.52 9.91C27.52 12.05 29.01 13.59 31.08 13.59C32.51 13.59 33.64 12.85 34.19 11.65L34.19 13.55L34.78 13.55L34.78 3.16L34.19 3.16L34.19 8.16C33.64 6.96 32.51 6.22 31.07 6.22C29.01 6.22 27.52 7.76 27.52 9.91ZM28.10 9.91C28.11 8.11 29.39 6.78 31.15 6.78C32.91 6.78 34.19 8.09 34.19 9.91C34.19 11.73 32.91 13.05 31.15 13.05C29.37 13.05 28.11 11.73 28.10 9.91ZM36.97 9.91C36.97 12.05 38.47 13.57 40.53 13.57C41.69 13.57 42.69 13.13 43.36 12.40L43.02 12.03C42.43 12.67 41.55 13.03 40.56 13.03C38.86 13.03 37.63 11.84 37.55 10.07L43.92 10.07C43.96 7.81 42.67 6.24 40.53 6.24C38.47 6.24 36.97 7.77 36.97 9.91ZM37.56 9.55C37.70 7.90 38.89 6.78 40.53 6.78C42.20 6.78 43.27 7.90 43.39 9.55ZM46.07 13.55L46.66 13.55L46.66 3.16L46.07 3.16ZM49.00 11.42C49.00 12.66 49.97 13.57 51.41 13.57C52.67 13.57 53.70 13.12 54.32 12.11L54.33 13.55L54.91 13.55L54.88 8.71C54.87 7.20 53.93 6.24 52.21 6.24C51.10 6.24 50.26 6.65 49.39 7.28L49.67 7.73C50.44 7.14 51.21 6.78 52.12 6.78C53.58 6.78 54.29 7.52 54.31 8.75L54.31 9.46L51.72 9.46C50.04 9.46 49.00 10.21 49.00 11.42ZM49.56 11.41C49.56 10.47 50.34 9.98 51.77 9.98L54.32 9.98L54.32 11.17C53.87 12.45 52.85 13.03 51.49 13.03C50.30 13.03 49.56 12.38 49.56 11.41ZM57.58 13.55L58.17 13.55L58.17 9.60C58.30 7.91 59.28 6.85 60.89 6.85L60.89 6.24C59.58 6.27 58.63 6.92 58.17 8.09L58.17 6.26L57.58 6.26ZM62.29 4.16C62.29 4.45 62.51 4.68 62.78 4.68C63.04 4.68 63.27 4.45 63.27 4.16C63.27 3.88 63.04 3.65 62.78 3.65C62.51 3.65 62.29 3.88 62.29 4.16ZM62.48 13.55L63.06 13.55L63.06 6.26L62.48 6.26ZM65.34 11.42C65.34 12.66 66.30 13.57 67.75 13.57C69.01 13.57 70.04 13.12 70.66 12.11L70.67 13.55L71.25 13.55L71.22 8.71C71.20 7.20 70.27 6.24 68.54 6.24C67.44 6.24 66.60 6.65 65.73 7.28L66.01 7.73C66.78 7.14 67.55 6.78 68.46 6.78C69.92 6.78 70.63 7.52 70.64 8.75L70.64 9.46L68.05 9.46C66.37 9.46 65.34 10.21 65.34 11.42ZM65.90 11.41C65.90 10.47 66.68 9.98 68.11 9.98L70.66 9.98L70.66 11.17C70.21 12.45 69.19 13.03 67.83 13.03C66.64 13.03 65.90 12.38 65.90 11.41Z"></path></g><!----><g data-v-423bf9ae="" id="acabe21b-cfcc-4647-85a3-4b3d52e25044" transform="matrix(2.8125,0,0,2.8125,0,0)" stroke="none" fill="white"><path d="M0 16.024L15.976 32 32 15.976 16.024 0 0 16.024zm15.989 7.323l-7.336-7.336 14.694-.022-7.358 7.358z"></path></g><!----><g data-v-423bf9ae="" id="2d9cb345-48b0-4305-aeca-a85be2062f3f" fill="white" transform="matrix(1.577680871266693,0,0,1.577680871266693,109.4793607520665,51.02299687134955)"><path d="M2.24 6.19L2.24 14.03L3.47 14.03L3.47 14.03Q5.27 14.03 6.37 12.95L6.37 12.95L6.37 12.95Q7.46 11.87 7.46 10.12L7.46 10.12L7.46 10.12Q7.46 8.20 6.41 7.18L6.41 7.18L6.41 7.18Q5.36 6.16 3.42 6.16L3.42 6.16L3.42 6.16Q2.43 6.16 2.24 6.19L2.24 6.19ZM3.28 14.40L0.33 14.40L0.39 14.11L1.54 13.90L1.54 6.51L0.37 6.36L0.44 6.12L0.44 6.12Q2.52 5.79 3.68 5.79L3.68 5.79L3.68 5.79Q4.64 5.79 5.42 6.03L5.42 6.03L5.42 6.03Q6.19 6.26 6.71 6.66L6.71 6.66L6.71 6.66Q7.22 7.05 7.56 7.59L7.56 7.59L7.56 7.59Q7.90 8.13 8.05 8.71L8.05 8.71L8.05 8.71Q8.20 9.29 8.20 9.92L8.20 9.92L8.20 9.92Q8.20 10.64 8.03 11.28L8.03 11.28L8.03 11.28Q7.86 11.93 7.48 12.50L7.48 12.50L7.48 12.50Q7.10 13.08 6.53 13.49L6.53 13.49L6.53 13.49Q5.97 13.91 5.14 14.15L5.14 14.15L5.14 14.15Q4.31 14.40 3.28 14.40L3.28 14.40ZM17.08 6.33L15.90 6.16L15.94 5.89L19.07 5.89L19.02 6.16L17.82 6.32L17.82 13.95L19.14 14.08L19.08 14.40L15.97 14.40L16.00 14.11L17.08 13.90L17.08 6.33ZM26.86 13.60L26.86 13.60L27.06 11.66L27.39 11.71L27.58 13.21L27.58 13.21Q27.81 13.64 28.34 13.89L28.34 13.89L28.34 13.89Q28.87 14.14 29.47 14.14L29.47 14.14L29.47 14.14Q30.15 14.14 30.63 13.74L30.63 13.74L30.63 13.74Q31.11 13.33 31.11 12.61L31.11 12.61L31.11 12.61Q31.11 12.20 30.90 11.83L30.90 11.83L30.90 11.83Q30.68 11.46 30.33 11.18L30.33 11.18L30.33 11.18Q29.99 10.90 29.57 10.63L29.57 10.63L29.57 10.63Q29.15 10.36 28.73 10.07L28.73 10.07L28.73 10.07Q28.31 9.79 27.97 9.48L27.97 9.48L27.97 9.48Q27.62 9.17 27.41 8.75L27.41 8.75L27.41 8.75Q27.19 8.33 27.19 7.84L27.19 7.84L27.19 7.84Q27.19 6.88 27.89 6.29L27.89 6.29L27.89 6.29Q28.58 5.71 29.46 5.71L29.46 5.71L29.46 5.71Q30.05 5.71 30.59 5.90L30.59 5.90L30.59 5.90Q31.13 6.09 31.46 6.46L31.46 6.46L31.23 8.58L30.92 8.53L30.73 6.87L30.73 6.87Q30.55 6.54 30.13 6.32L30.13 6.32L30.13 6.32Q29.72 6.10 29.29 6.10L29.29 6.10L29.29 6.10Q28.69 6.10 28.28 6.48L28.28 6.48L28.28 6.48Q27.86 6.87 27.86 7.52L27.86 7.52L27.86 7.52Q27.86 7.96 28.09 8.35L28.09 8.35L28.09 8.35Q28.31 8.74 28.66 9.03L28.66 9.03L28.66 9.03Q29.01 9.32 29.44 9.61L29.44 9.61L29.44 9.61Q29.86 9.89 30.29 10.17L30.29 10.17L30.29 10.17Q30.71 10.45 31.07 10.75L31.07 10.75L31.07 10.75Q31.42 11.05 31.64 11.45L31.64 11.45L31.64 11.45Q31.86 11.85 31.86 12.29L31.86 12.29L31.86 12.29Q31.86 13.28 31.11 13.93L31.11 13.93L31.11 13.93Q30.36 14.57 29.11 14.57L29.11 14.57L29.11 14.57Q28.40 14.57 27.80 14.30L27.80 14.30L27.80 14.30Q27.20 14.03 26.86 13.60ZM41.40 6.18L41.40 10.11L42.95 10.11L42.95 10.11Q43.63 9.86 44.09 9.28L44.09 9.28L44.09 9.28Q44.55 8.70 44.55 8.02L44.55 8.02L44.55 8.02Q44.55 7.11 43.93 6.63L43.93 6.63L43.93 6.63Q43.31 6.15 42.23 6.15L42.23 6.15L41.40 6.18ZM42.77 14.40L39.58 14.40L39.63 14.11L40.69 13.90L40.69 6.51L39.60 6.37L39.66 6.13L39.66 6.13Q41.49 5.83 42.57 5.83L42.57 5.83L42.57 5.83Q43.33 5.83 43.94 6.05L43.94 6.05L43.94 6.05Q44.55 6.27 44.93 6.73L44.93 6.73L44.93 6.73Q45.30 7.19 45.30 7.83L45.30 7.83L45.30 7.83Q45.30 8.57 44.87 9.14L44.87 9.14L44.87 9.14Q44.45 9.72 43.42 10.23L43.42 10.23L43.42 10.23L44.73 12.19L44.73 12.19Q45.45 13.23 45.79 13.58L45.79 13.58L45.79 13.58Q46.14 13.92 46.52 14.05L46.52 14.05L46.85 14.16L46.81 14.42L46.81 14.42Q46.51 14.52 46.17 14.52L46.17 14.52L46.17 14.52Q45.88 14.52 45.63 14.40L45.63 14.40L45.63 14.40Q45.38 14.28 45.13 14.01L45.13 14.01L45.13 14.01Q44.89 13.75 44.71 13.48L44.71 13.48L44.71 13.48Q44.52 13.22 44.25 12.77L44.25 12.77L42.86 10.49L41.40 10.49L41.40 13.95L42.84 14.08L42.77 14.40ZM55.75 6.33L54.51 6.16L54.54 5.89L57.64 5.89L57.61 6.16L56.46 6.32L56.46 11.01L56.46 11.01Q56.46 11.87 56.64 12.49L56.64 12.49L56.64 12.49Q56.82 13.10 57.17 13.45L57.17 13.45L57.17 13.45Q57.52 13.79 57.97 13.95L57.97 13.95L57.97 13.95Q58.41 14.11 59.00 14.11L59.00 14.11L59.00 14.11Q60.18 14.11 60.82 13.40L60.82 13.40L60.82 13.40Q61.46 12.68 61.46 11.33L61.46 11.33L61.46 6.33L60.19 6.16L60.22 5.89L63.13 5.89L63.08 6.16L61.94 6.32L61.92 11.05L61.92 11.05Q61.91 12.78 61.17 13.68L61.17 13.68L61.17 13.68Q60.44 14.58 58.78 14.58L58.78 14.58L58.78 14.58Q58.28 14.58 57.85 14.49L57.85 14.49L57.85 14.49Q57.43 14.40 57.03 14.16L57.03 14.16L57.03 14.16Q56.64 13.93 56.36 13.56L56.36 13.56L56.36 13.56Q56.08 13.19 55.91 12.60L55.91 12.60L55.91 12.60Q55.75 12.01 55.75 11.24L55.75 11.24L55.75 6.33ZM74.22 14.40L70.81 14.40L70.85 14.11L71.93 13.90L71.93 6.51L70.82 6.36L70.88 6.12L70.88 6.12Q71.05 6.09 71.50 6.02L71.50 6.02L71.50 6.02Q71.95 5.94 72.18 5.91L72.18 5.91L72.18 5.91Q72.41 5.88 72.82 5.84L72.82 5.84L72.82 5.84Q73.23 5.81 73.64 5.81L73.64 5.81L73.64 5.81Q74.33 5.81 74.92 5.96L74.92 5.96L74.92 5.96Q75.51 6.10 75.97 6.40L75.97 6.40L75.97 6.40Q76.43 6.69 76.69 7.18L76.69 7.18L76.69 7.18Q76.95 7.66 76.95 8.29L76.95 8.29L76.95 8.29Q76.95 8.90 76.67 9.43L76.67 9.43L76.67 9.43Q76.39 9.97 75.93 10.33L75.93 10.33L75.93 10.33Q75.47 10.69 74.87 10.90L74.87 10.90L74.87 10.90Q74.27 11.10 73.63 11.10L73.63 11.10L73.63 11.10Q73.36 11.10 73.29 11.09L73.29 11.09L73.22 10.80L73.59 10.78L73.59 10.78Q74.25 10.75 74.75 10.55L74.75 10.55L74.75 10.55Q75.24 10.36 75.53 10.03L75.53 10.03L75.53 10.03Q75.82 9.70 75.96 9.30L75.96 9.30L75.96 9.30Q76.10 8.90 76.10 8.43L76.10 8.43L76.10 8.43Q76.10 7.98 75.94 7.57L75.94 7.57L75.94 7.57Q75.77 7.16 75.45 6.83L75.45 6.83L75.45 6.83Q75.13 6.50 74.60 6.31L74.60 6.31L74.60 6.31Q74.08 6.11 73.43 6.11L73.43 6.11L72.68 6.15L72.68 13.95L74.28 14.08L74.22 14.40ZM84.70 8.09L84.64 5.89L91.70 5.89L91.46 8.16L91.12 8.12L91 6.24L88.46 6.24L88.46 13.90L89.67 14.08L89.60 14.40L86.50 14.40L86.54 14.11L87.73 13.90L87.73 6.24L85.30 6.24L85.06 8.15L84.70 8.09ZM100.57 6.33L99.39 6.16L99.43 5.89L102.55 5.89L102.50 6.16L101.31 6.32L101.31 13.95L102.63 14.08L102.57 14.40L99.46 14.40L99.49 14.11L100.57 13.90L100.57 6.33ZM111.32 6.34L110.32 6.14L110.35 5.89L113.24 5.89L113.22 6.14L112.07 6.32L114.43 13.30L117.01 6.34L115.74 6.14L115.76 5.89L118.43 5.89L118.40 6.14L117.52 6.32L114.50 14.47L114.15 14.57L111.32 6.34ZM127.35 6.36L126.12 6.18L126.17 5.89L132.36 5.89L132.15 8.07L131.84 8.03L131.71 6.24L128.06 6.24L128.06 9.89L130.35 9.89L130.60 8.94L130.97 8.89L130.74 11.55L130.40 11.61L130.29 10.26L128.06 10.26L128.06 14.03L131.90 14.03L132.41 12.19L132.69 12.26L132.48 14.40L126.14 14.40L126.18 14.11L127.35 13.90L127.35 6.36ZM153.11 14.40L150.28 14.40L150.32 14.17L151.46 13.96L152.02 6.36L150.77 6.14L150.81 5.89L153.00 5.89L153.48 7.18L155.63 12.84L158.07 6.88L158.49 5.89L160.72 5.89L160.69 6.14L159.51 6.34L159.89 14.01L161.12 14.12L161.10 14.40L157.94 14.40L157.99 14.17L159.15 13.96L158.76 6.41L155.59 13.99L155.24 14.05L152.46 6.53L151.92 14.01L153.15 14.12L153.11 14.40ZM169.59 9.75L169.59 9.75L169.59 9.75Q169.59 11.03 169.96 12.01L169.96 12.01L169.96 12.01Q170.32 13.00 171.04 13.57L171.04 13.57L171.04 13.57Q171.75 14.14 172.73 14.14L172.73 14.14L172.73 14.14Q173.30 14.14 173.80 13.92L173.80 13.92L173.80 13.92Q174.29 13.70 174.63 13.33L174.63 13.33L174.63 13.33Q174.98 12.96 175.22 12.49L175.22 12.49L175.22 12.49Q175.46 12.01 175.58 11.50L175.58 11.50L175.58 11.50Q175.70 10.99 175.70 10.48L175.70 10.48L175.70 10.48Q175.70 8.50 174.85 7.29L174.85 7.29L174.85 7.29Q174.00 6.07 172.55 6.07L172.55 6.07L172.55 6.07Q171.96 6.07 171.47 6.28L171.47 6.28L171.47 6.28Q170.98 6.49 170.64 6.85L170.64 6.85L170.64 6.85Q170.30 7.21 170.06 7.69L170.06 7.69L170.06 7.69Q169.82 8.16 169.71 8.69L169.71 8.69L169.71 8.69Q169.59 9.21 169.59 9.75ZM168.84 10.16L168.84 10.16L168.84 10.16Q168.84 8.16 169.94 6.92L169.94 6.92L169.94 6.92Q171.04 5.69 172.87 5.69L172.87 5.69L172.87 5.69Q174.01 5.69 174.83 6.27L174.83 6.27L174.83 6.27Q175.64 6.86 176.04 7.84L176.04 7.84L176.04 7.84Q176.44 8.83 176.44 10.11L176.44 10.11L176.44 10.11Q176.44 10.75 176.29 11.38L176.29 11.38L176.29 11.38Q176.13 12.00 175.81 12.58L175.81 12.58L175.81 12.58Q175.49 13.17 175.02 13.61L175.02 13.61L175.02 13.61Q174.56 14.05 173.89 14.32L173.89 14.32L173.89 14.32Q173.21 14.58 172.40 14.58L172.40 14.58L172.40 14.58Q171.35 14.58 170.53 13.98L170.53 13.98L170.53 13.98Q169.70 13.37 169.27 12.37L169.27 12.37L169.27 12.37Q168.84 11.37 168.84 10.16ZM186.05 6.19L186.05 14.03L187.28 14.03L187.28 14.03Q189.09 14.03 190.19 12.95L190.19 12.95L190.19 12.95Q191.28 11.87 191.28 10.12L191.28 10.12L191.28 10.12Q191.28 8.20 190.23 7.18L190.23 7.18L190.23 7.18Q189.18 6.16 187.24 6.16L187.24 6.16L187.24 6.16Q186.25 6.16 186.05 6.19L186.05 6.19ZM187.10 14.40L184.15 14.40L184.21 14.11L185.36 13.90L185.36 6.51L184.19 6.36L184.26 6.12L184.26 6.12Q186.34 5.79 187.50 5.79L187.50 5.79L187.50 5.79Q188.46 5.79 189.24 6.03L189.24 6.03L189.24 6.03Q190.01 6.26 190.52 6.66L190.52 6.66L190.52 6.66Q191.04 7.05 191.38 7.59L191.38 7.59L191.38 7.59Q191.72 8.13 191.87 8.71L191.87 8.71L191.87 8.71Q192.02 9.29 192.02 9.92L192.02 9.92L192.02 9.92Q192.02 10.64 191.85 11.28L191.85 11.28L191.85 11.28Q191.68 11.93 191.30 12.50L191.30 12.50L191.30 12.50Q190.91 13.08 190.35 13.49L190.35 13.49L190.35 13.49Q189.79 13.91 188.96 14.15L188.96 14.15L188.96 14.15Q188.13 14.40 187.10 14.40L187.10 14.40ZM200.96 6.36L199.74 6.18L199.79 5.89L205.98 5.89L205.77 8.07L205.45 8.03L205.32 6.24L201.67 6.24L201.67 9.89L203.96 9.89L204.22 8.94L204.59 8.89L204.36 11.55L204.01 11.61L203.90 10.26L201.67 10.26L201.67 14.03L205.52 14.03L206.02 12.19L206.30 12.26L206.10 14.40L199.76 14.40L199.80 14.11L200.96 13.90L200.96 6.36Z"></path></g></svg>