<svg data-v-423bf9ae="" xmlns="http://www.w3.org/2000/svg" viewBox="0 0 406.1936637258509 60" class="font"><!----><!----><!----><g data-v-423bf9ae="" id="3c2c0817-1ddf-48f8-aa96-d4f35676eb8a" fill="white" transform="matrix(5.7526364568010235,0,0,5.7526364568010235,-3.6816941542226687,-18.178331458825404)"><path d="M0.64 8.65C0.64 11.37 2.91 13.57 5.70 13.57C7 13.57 8.25 13.05 9.16 12.21L8.79 11.80C7.97 12.54 6.87 12.99 5.71 12.99C3.23 12.99 1.23 11.05 1.23 8.64C1.23 6.24 3.23 4.31 5.71 4.31C6.87 4.31 7.98 4.76 8.79 5.52L9.14 5.07C8.23 4.26 7.01 3.75 5.70 3.75C2.91 3.75 0.64 5.94 0.64 8.65ZM10.65 11.42C10.65 12.66 11.62 13.57 13.06 13.57C14.32 13.57 15.36 13.12 15.97 12.11L15.99 13.55L16.56 13.55L16.53 8.71C16.52 7.20 15.58 6.24 13.86 6.24C12.75 6.24 11.91 6.65 11.05 7.28L11.33 7.73C12.10 7.14 12.87 6.78 13.78 6.78C15.23 6.78 15.95 7.52 15.96 8.75L15.96 9.46L13.37 9.46C11.69 9.46 10.65 10.21 10.65 11.42ZM11.21 11.41C11.21 10.47 12.00 9.98 13.43 9.98L15.97 9.98L15.97 11.17C15.53 12.45 14.50 13.03 13.15 13.03C11.96 13.03 11.21 12.38 11.21 11.41ZM19.24 13.55L19.82 13.55L19.82 9.60C19.95 7.92 20.99 6.87 22.67 6.83C24.16 6.83 25.05 7.71 25.05 9.21L25.05 13.55L25.63 13.55L25.63 9.10C25.63 7.32 24.58 6.24 22.81 6.24C21.35 6.27 20.31 6.92 19.82 8.12L19.82 6.26L19.24 6.26ZM27.52 9.91C27.52 12.05 29.01 13.59 31.08 13.59C32.51 13.59 33.64 12.85 34.19 11.65L34.19 13.55L34.78 13.55L34.78 3.16L34.19 3.16L34.19 8.16C33.64 6.96 32.51 6.22 31.07 6.22C29.01 6.22 27.52 7.76 27.52 9.91ZM28.10 9.91C28.11 8.11 29.39 6.78 31.15 6.78C32.91 6.78 34.19 8.09 34.19 9.91C34.19 11.73 32.91 13.05 31.15 13.05C29.37 13.05 28.11 11.73 28.10 9.91ZM36.97 9.91C36.97 12.05 38.47 13.57 40.53 13.57C41.69 13.57 42.69 13.13 43.36 12.40L43.02 12.03C42.43 12.67 41.55 13.03 40.56 13.03C38.86 13.03 37.63 11.84 37.55 10.07L43.92 10.07C43.96 7.81 42.67 6.24 40.53 6.24C38.47 6.24 36.97 7.77 36.97 9.91ZM37.56 9.55C37.70 7.90 38.89 6.78 40.53 6.78C42.20 6.78 43.27 7.90 43.39 9.55ZM46.07 13.55L46.66 13.55L46.66 3.16L46.07 3.16ZM49.00 11.42C49.00 12.66 49.97 13.57 51.41 13.57C52.67 13.57 53.70 13.12 54.32 12.11L54.33 13.55L54.91 13.55L54.88 8.71C54.87 7.20 53.93 6.24 52.21 6.24C51.10 6.24 50.26 6.65 49.39 7.28L49.67 7.73C50.44 7.14 51.21 6.78 52.12 6.78C53.58 6.78 54.29 7.52 54.31 8.75L54.31 9.46L51.72 9.46C50.04 9.46 49.00 10.21 49.00 11.42ZM49.56 11.41C49.56 10.47 50.34 9.98 51.77 9.98L54.32 9.98L54.32 11.17C53.87 12.45 52.85 13.03 51.49 13.03C50.30 13.03 49.56 12.38 49.56 11.41ZM57.58 13.55L58.17 13.55L58.17 9.60C58.30 7.91 59.28 6.85 60.89 6.85L60.89 6.24C59.58 6.27 58.63 6.92 58.17 8.09L58.17 6.26L57.58 6.26ZM62.29 4.16C62.29 4.45 62.51 4.68 62.78 4.68C63.04 4.68 63.27 4.45 63.27 4.16C63.27 3.88 63.04 3.65 62.78 3.65C62.51 3.65 62.29 3.88 62.29 4.16ZM62.48 13.55L63.06 13.55L63.06 6.26L62.48 6.26ZM65.34 11.42C65.34 12.66 66.30 13.57 67.75 13.57C69.01 13.57 70.04 13.12 70.66 12.11L70.67 13.55L71.25 13.55L71.22 8.71C71.20 7.20 70.27 6.24 68.54 6.24C67.44 6.24 66.60 6.65 65.73 7.28L66.01 7.73C66.78 7.14 67.55 6.78 68.46 6.78C69.92 6.78 70.63 7.52 70.64 8.75L70.64 9.46L68.05 9.46C66.37 9.46 65.34 10.21 65.34 11.42ZM65.90 11.41C65.90 10.47 66.68 9.98 68.11 9.98L70.66 9.98L70.66 11.17C70.21 12.45 69.19 13.03 67.83 13.03C66.64 13.03 65.90 12.38 65.90 11.41Z"></path></g><!----><!----></svg>